# xmcd CD database file generated by Grip 2.95
# 
# Track frame offsets:
#       150
#       16372
#       38637
#       51633
#       71766
#       88045
#       105644
#       133947
#       148191
#       166943
#       184610
#       196315
#       206532
#       215736
# 
# Disc length: 2985 seconds
# 
# Revision: 3
# Processed by: cddbd v1.4PL0 Copyright (c) Steve Scherf et al.
# Submitted via: Grip 2.95
# 
DISCID=d60ba70e
DTITLE=Shakin' Apostles - Medicine Show
DYEAR=1900
DGENRE=
TTITLE0=Medicine Show
TTITLE1=Crazy Flowers
TTITLE2=Family Band
TTITLE3=Buffalo Skinners
TTITLE4=Black and White Movies
TTITLE5=After The Opera
TTITLE6=Hotspur
TTITLE7=Busy Man
TTITLE8=Ain't That Love
TTITLE9=Sailors
TTITLE10=Roadhouse Rock
TTITLE11=Missing You Tonight
TTITLE12=Fall On You
TTITLE13=Medicine Show Rag
EXTD=
EXTT0=
EXTT1=
EXTT2=
EXTT3=
EXTT4=
EXTT5=
EXTT6=
EXTT7=
EXTT8=
EXTT9=
EXTT10=
EXTT11=
EXTT12=
EXTT13=
PLAYORDER=
